<svg version="1.1" viewBox="0.0 0.0 384.4671916010499 204.97900262467192" fill="none" stroke="none" stroke-linecap="square" stroke-miterlimit="10" xmlns:xlink="http://www.w3.org/1999/xlink" xmlns="http://www.w3.org/2000/svg"><clipPath id="p.0"><path d="m0 0l384.4672 0l0 204.979l-384.4672 0l0 -204.979z" clip-rule="nonzero"/></clipPath><g clip-path="url(#p.0)"><path fill="#000000" fill-opacity="0.0" d="m0 0l384.4672 0l0 204.979l-384.4672 0z" fill-rule="evenodd"/><path fill="#000000" fill-opacity="0.0" d="m133.71785 102.48819l0 0c0 -47.505188 27.786545 -86.01575 62.06299 -86.01575l0 0c16.460129 0 32.246094 9.062347 43.885162 25.19343c11.639069 16.13108 18.177841 38.00952 18.177841 60.82232l0 0c0 47.505188 -27.78656 86.01575 -62.063004 86.01575l0 0c-34.276443 0 -62.06299 -38.51056 -62.06299 -86.01575z" fill-rule="evenodd"/><path stroke="#000000" stroke-width="3.0" stroke-linejoin="round" stroke-linecap="butt" d="m133.71785 102.48819l0 0c0 -47.505188 27.786545 -86.01575 62.06299 -86.01575l0 0c16.460129 0 32.246094 9.062347 43.885162 25.19343c11.639069 16.13108 18.177841 38.00952 18.177841 60.82232l0 0c0 47.505188 -27.78656 86.01575 -62.063004 86.01575l0 0c-34.276443 0 -62.06299 -38.51056 -62.06299 -86.01575z" fill-rule="evenodd"/><path fill="#000000" fill-opacity="0.0" d="m126.62336 102.50394l0 0c0 -47.505184 29.372948 -86.01575 65.6063 -86.01575l0 0c17.399872 0 34.087097 9.062347 46.390656 25.193428c12.303574 16.13108 19.215652 38.00952 19.215652 60.82232l0 0c0 47.505188 -29.372955 86.01575 -65.60631 86.01575l0 0c-36.233353 0 -65.6063 -38.51056 -65.6063 -86.01575z" fill-rule="evenodd"/><path stroke="#000000" stroke-width="3.0" stroke-linejoin="round" stroke-linecap="butt" d="m126.62336 102.50394l0 0c0 -47.505184 29.372948 -86.01575 65.6063 -86.01575l0 0c17.399872 0 34.087097 9.062347 46.390656 25.193428c12.303574 16.13108 19.215652 38.00952 19.215652 60.82232l0 0c0 47.505188 -29.372955 86.01575 -65.60631 86.01575l0 0c-36.233353 0 -65.6063 -38.51056 -65.6063 -86.01575z" fill-rule="evenodd"/><path fill="#000000" fill-opacity="0.0" d="m197.5606 18.24672c2.6600952 7.9803143 15.369629 34.87708 15.960617 47.88189c0.59098816 13.004814 -7.981186 20.097984 -12.414688 30.14698c-4.4335175 10.048996 -13.299652 14.777779 -14.186356 30.14698c-0.8867035 15.369209 7.3884583 51.723534 8.866135 62.068245" fill-rule="evenodd"/><path stroke="#000000" stroke-width="2.0" stroke-linejoin="round" stroke-linecap="butt" d="m197.5606 18.24672c2.6600952 7.9803143 15.369629 34.87708 15.960617 47.88189c0.59098816 13.004814 -7.981186 20.097984 -12.414688 30.14698c-4.4335175 10.048996 -13.299652 14.777779 -14.186356 30.14698c-0.8867035 15.369209 7.3884583 51.723534 8.866135 62.068245" fill-rule="evenodd"/><path fill="#000000" fill-opacity="0.0" d="m197.56036 16.459318c1.773407 8.77746 13.596237 34.817116 10.640427 52.664757c-2.9558258 17.847649 -26.306213 34.52569 -28.375336 54.421112c-2.069107 19.89544 13.300537 54.12623 15.960632 64.95147" fill-rule="evenodd"/><path stroke="#000000" stroke-width="2.0" stroke-linejoin="round" stroke-linecap="butt" d="m197.56036 16.459318c1.773407 8.77746 13.596237 34.817116 10.640427 52.664757c-2.9558258 17.847649 -26.306213 34.52569 -28.375336 54.421112c-2.069107 19.89544 13.300537 54.12623 15.960632 64.95147" fill-rule="evenodd"/></g></svg>