<svg version="1.1" viewBox="0.0 0.0 960.0 720.0" fill="none" stroke="none" stroke-linecap="square" stroke-miterlimit="10" xmlns:xlink="http://www.w3.org/1999/xlink" xmlns="http://www.w3.org/2000/svg"><clipPath id="p.0"><path d="m0 0l960.0 0l0 720.0l-960.0 0l0 -720.0z" clip-rule="nonzero"/></clipPath><g clip-path="url(#p.0)"><path fill="#000000" fill-opacity="0.0" d="m0 0l960.0 0l0 720.0l-960.0 0z" fill-rule="evenodd"/><path fill="#000000" fill-opacity="0.0" d="m7.094488 87.79002l0 0c0 -47.505184 27.786547 -86.01575 62.06299 -86.01575l0 0c16.460129 0 32.246094 9.062347 43.885162 25.193428c11.639069 16.131083 18.177834 38.00953 18.177834 60.82232l0 0c0 47.505188 -27.786552 86.01575 -62.062996 86.01575l0 0c-34.276443 0 -62.06299 -38.51056 -62.06299 -86.01575z" fill-rule="evenodd"/><path stroke="#000000" stroke-width="3.0" stroke-linejoin="round" stroke-linecap="butt" d="m7.094488 87.79002l0 0c0 -47.505184 27.786547 -86.01575 62.06299 -86.01575l0 0c16.460129 0 32.246094 9.062347 43.885162 25.193428c11.639069 16.131083 18.177834 38.00953 18.177834 60.82232l0 0c0 47.505188 -27.786552 86.01575 -62.062996 86.01575l0 0c-34.276443 0 -62.06299 -38.51056 -62.06299 -86.01575z" fill-rule="evenodd"/><path fill="#000000" fill-opacity="0.0" d="m0 87.80577l0 0c0 -47.505184 29.37294 -86.01575 65.6063 -86.01575l0 0c17.399872 0 34.08709 9.062347 46.390656 25.19343c12.303574 16.13108 19.215645 38.009525 19.215645 60.822315l0 0c0 47.505188 -29.37294 86.01575 -65.6063 86.01575l0 0c-36.23336 0 -65.6063 -38.51056 -65.6063 -86.01575z" fill-rule="evenodd"/><path stroke="#000000" stroke-width="3.0" stroke-linejoin="round" stroke-linecap="butt" d="m0 87.80577l0 0c0 -47.505184 29.37294 -86.01575 65.6063 -86.01575l0 0c17.399872 0 34.08709 9.062347 46.390656 25.19343c12.303574 16.13108 19.215645 38.009525 19.215645 60.822315l0 0c0 47.505188 -29.37294 86.01575 -65.6063 86.01575l0 0c-36.23336 0 -65.6063 -38.51056 -65.6063 -86.01575z" fill-rule="evenodd"/><path fill="#000000" fill-opacity="0.0" d="m70.937225 3.5485563c2.6601028 7.980315 15.369644 34.877075 15.960632 47.88189c0.59098816 13.00481 -7.9811935 20.097988 -12.414696 30.146984c-4.43351 10.048988 -13.299652 14.777779 -14.186356 30.14698c-0.8866997 15.369202 7.3884506 51.723526 8.866142 62.068237" fill-rule="evenodd"/><path stroke="#000000" stroke-width="2.0" stroke-linejoin="round" stroke-linecap="butt" d="m70.937225 3.5485563c2.6601028 7.980315 15.369644 34.877075 15.960632 47.88189c0.59098816 13.00481 -7.9811935 20.097988 -12.414696 30.146984c-4.43351 10.048988 -13.299652 14.777779 -14.186356 30.14698c-0.8866997 15.369202 7.3884506 51.723526 8.866142 62.068237" fill-rule="evenodd"/><path fill="#000000" fill-opacity="0.0" d="m70.93679 0c1.7733994 8.867017 13.596237 35.17235 10.640419 53.2021c-2.9558182 18.02975 -26.306213 34.877956 -28.375328 54.976376c-2.0691185 20.098427 13.300522 54.678474 15.960632 65.614174" fill-rule="evenodd"/><path stroke="#000000" stroke-width="2.0" stroke-linejoin="round" stroke-linecap="butt" d="m70.93679 0c1.7733994 8.867017 13.596237 35.17235 10.640419 53.2021c-2.9558182 18.02975 -26.306213 34.877956 -28.375328 54.976376c-2.0691185 20.098427 13.300522 54.678474 15.960632 65.614174" fill-rule="evenodd"/></g></svg>