<svg version="1.1" viewBox="0.0 0.0 194.89763779527559 204.9448818897638" fill="none" stroke="none" stroke-linecap="square" stroke-miterlimit="10" xmlns:xlink="http://www.w3.org/1999/xlink" xmlns="http://www.w3.org/2000/svg"><clipPath id="p.0"><path d="m0 0l194.89764 0l0 204.94489l-194.89764 0l0 -204.94489z" clip-rule="nonzero"/></clipPath><g clip-path="url(#p.0)"><path fill="#000000" fill-opacity="0.0" d="m0 0l194.89764 0l0 204.94489l-194.89764 0z" fill-rule="evenodd"/><path fill="#000000" fill-opacity="0.0" d="m38.93307 102.47113l0 0c0 -47.505188 27.786549 -86.01575 62.062992 -86.01575l0 0c16.460129 0 32.246094 9.062347 43.885162 25.19343c11.639069 16.13108 18.177826 38.00952 18.177826 60.82232l0 0c0 47.505188 -27.786545 86.01575 -62.06299 86.01575l0 0c-34.276443 0 -62.062992 -38.51056 -62.062992 -86.01575z" fill-rule="evenodd"/><path stroke="#000000" stroke-width="3.0" stroke-linejoin="round" stroke-linecap="butt" d="m38.93307 102.47113l0 0c0 -47.505188 27.786549 -86.01575 62.062992 -86.01575l0 0c16.460129 0 32.246094 9.062347 43.885162 25.19343c11.639069 16.13108 18.177826 38.00952 18.177826 60.82232l0 0c0 47.505188 -27.786545 86.01575 -62.06299 86.01575l0 0c-34.276443 0 -62.062992 -38.51056 -62.062992 -86.01575z" fill-rule="evenodd"/><path fill="#000000" fill-opacity="0.0" d="m31.838583 102.48688l0 0c0 -47.505188 29.372942 -86.01575 65.6063 -86.01575l0 0c17.399872 0 34.087082 9.062347 46.390656 25.19343c12.303574 16.13108 19.215637 38.00952 19.215637 60.82232l0 0c0 47.505188 -29.37294 86.01575 -65.60629 86.01575l0 0c-36.23336 0 -65.6063 -38.51056 -65.6063 -86.01575z" fill-rule="evenodd"/><path stroke="#000000" stroke-width="3.0" stroke-linejoin="round" stroke-linecap="butt" d="m31.838583 102.48688l0 0c0 -47.505188 29.372942 -86.01575 65.6063 -86.01575l0 0c17.399872 0 34.087082 9.062347 46.390656 25.19343c12.303574 16.13108 19.215637 38.00952 19.215637 60.82232l0 0c0 47.505188 -29.37294 86.01575 -65.60629 86.01575l0 0c-36.23336 0 -65.6063 -38.51056 -65.6063 -86.01575z" fill-rule="evenodd"/><path fill="#000000" fill-opacity="0.0" d="m102.77581 18.229658c2.6601028 7.980316 15.369637 34.877075 15.960632 47.88189c0.59098816 13.004814 -7.9811935 20.097984 -12.414703 30.14698c-4.43351 10.048996 -13.299652 14.777779 -14.186348 30.14698c-0.8867035 15.369209 7.3884506 51.723534 8.866142 62.068245" fill-rule="evenodd"/><path stroke="#000000" stroke-width="2.0" stroke-linejoin="round" stroke-linecap="butt" d="m102.77581 18.229658c2.6601028 7.980316 15.369637 34.877075 15.960632 47.88189c0.59098816 13.004814 -7.9811935 20.097984 -12.414703 30.14698c-4.43351 10.048996 -13.299652 14.777779 -14.186348 30.14698c-0.8867035 15.369209 7.3884506 51.723534 8.866142 62.068245" fill-rule="evenodd"/><path fill="#000000" fill-opacity="0.0" d="m102.77559 16.442257c1.773407 8.77746 13.596237 34.817112 10.640419 52.66476c-2.9558182 17.847641 -26.306206 34.52568 -28.375328 54.421112c-2.0691147 19.89544 13.3005295 54.12623 15.960632 64.95147" fill-rule="evenodd"/><path stroke="#000000" stroke-width="2.0" stroke-linejoin="round" stroke-linecap="butt" d="m102.77559 16.442257c1.773407 8.77746 13.596237 34.817112 10.640419 52.66476c-2.9558182 17.847641 -26.306206 34.52568 -28.375328 54.421112c-2.0691147 19.89544 13.3005295 54.12623 15.960632 64.95147" fill-rule="evenodd"/></g></svg>