<svg version="1.1" viewBox="0.0 0.0 194.89763779527559 204.9448818897638" fill="none" stroke="none" stroke-linecap="square" stroke-miterlimit="10" xmlns:xlink="http://www.w3.org/1999/xlink" xmlns="http://www.w3.org/2000/svg"><clipPath id="p.0"><path d="m0 0l194.89764 0l0 204.94489l-194.89764 0l0 -204.94489z" clip-rule="nonzero"/></clipPath><g clip-path="url(#p.0)"><path fill="#000000" fill-opacity="0.0" d="m0 0l194.89764 0l0 204.94489l-194.89764 0z" fill-rule="evenodd"/><path fill="#000000" fill-opacity="0.0" d="m31.84252 15.574803l131.2126 0l0 138.79825l-34.997025 34.997025l-96.21557 0z" fill-rule="evenodd"/><path fill="#000000" fill-opacity="0.0" d="m128.05809 189.37007l6.999405 -27.99762l27.99762 -6.999405z" fill-rule="evenodd"/><path fill="#000000" fill-opacity="0.0" d="m128.05809 189.37007l6.999405 -27.99762l27.99762 -6.999405l-34.997025 34.997025l-96.21557 0l0 -173.79527l131.2126 0l0 138.79825" fill-rule="evenodd"/><path fill="#000000" fill-opacity="0.2" d="m128.05809 189.37007l6.999405 -27.99762l27.99762 -6.999405z" fill-rule="evenodd"/><path stroke="#000000" stroke-width="3.0" stroke-linejoin="round" stroke-linecap="butt" d="m128.05809 189.37007l6.999405 -27.99762l27.99762 -6.999405l-34.997025 34.997025l-96.21557 0l0 -173.79527l131.2126 0l0 138.79825" fill-rule="evenodd"/></g></svg>