<svg version="1.1" viewBox="0.0 0.0 960.0 720.0" fill="none" stroke="none" stroke-linecap="square" stroke-miterlimit="10" xmlns:xlink="http://www.w3.org/1999/xlink" xmlns="http://www.w3.org/2000/svg"><clipPath id="p.0"><path d="m0 0l960.0 0l0 720.0l-960.0 0l0 -720.0z" clip-rule="nonzero"/></clipPath><g clip-path="url(#p.0)"><path fill="#000000" fill-opacity="0.0" d="m0 0l960.0 0l0 720.0l-960.0 0z" fill-rule="evenodd"/><path fill="#000000" fill-opacity="0.0" d="m0 0l131.2126 0l0 138.79825l-34.997025 34.997025l-96.215576 0z" fill-rule="evenodd"/><path fill="#000000" fill-opacity="0.0" d="m96.215576 173.79527l6.999405 -27.99762l27.99762 -6.999405z" fill-rule="evenodd"/><path fill="#000000" fill-opacity="0.0" d="m96.215576 173.79527l6.999405 -27.99762l27.99762 -6.999405l-34.997025 34.997025l-96.215576 0l0 -173.79527l131.2126 0l0 138.79825" fill-rule="evenodd"/><path fill="#000000" fill-opacity="0.2" d="m96.215576 173.79527l6.999405 -27.99762l27.99762 -6.999405z" fill-rule="evenodd"/><path stroke="#000000" stroke-width="3.0" stroke-linejoin="round" stroke-linecap="butt" d="m96.215576 173.79527l6.999405 -27.99762l27.99762 -6.999405l-34.997025 34.997025l-96.215576 0l0 -173.79527l131.2126 0l0 138.79825" fill-rule="evenodd"/></g></svg>