<svg version="1.1" viewBox="0.0 0.0 379.9422572178478 201.3044619422572" fill="none" stroke="none" stroke-linecap="square" stroke-miterlimit="10" xmlns:xlink="http://www.w3.org/1999/xlink" xmlns="http://www.w3.org/2000/svg"><clipPath id="p.0"><path d="m0 0l379.94226 0l0 201.30446l-379.94226 0l0 -201.30446z" clip-rule="nonzero"/></clipPath><g clip-path="url(#p.0)"><path fill="#000000" fill-opacity="0.0" d="m0 0l379.94226 0l0 201.30446l-379.94226 0z" fill-rule="evenodd"/><path fill="#000000" fill-opacity="0.0" d="m124.36483 13.754593l131.21259 0l0 138.79825l-34.997025 34.997025l-96.21557 0z" fill-rule="evenodd"/><path fill="#000000" fill-opacity="0.0" d="m220.5804 187.54987l6.999405 -27.99762l27.99762 -6.999405z" fill-rule="evenodd"/><path fill="#000000" fill-opacity="0.0" d="m220.5804 187.54987l6.999405 -27.99762l27.99762 -6.999405l-34.997025 34.997025l-96.21557 0l0 -173.79527l131.21259 0l0 138.79825" fill-rule="evenodd"/><path fill="#000000" fill-opacity="0.2" d="m220.5804 187.54987l6.999405 -27.99762l27.99762 -6.999405z" fill-rule="evenodd"/><path stroke="#000000" stroke-width="3.0" stroke-linejoin="round" stroke-linecap="butt" d="m220.5804 187.54987l6.999405 -27.99762l27.99762 -6.999405l-34.997025 34.997025l-96.21557 0l0 -173.79527l131.21259 0l0 138.79825" fill-rule="evenodd"/></g></svg>