<svg version="1.1" viewBox="0.0 0.0 375.6666666666667 174.0" fill="none" stroke="none" stroke-linecap="square" stroke-miterlimit="10" xmlns:xlink="http://www.w3.org/1999/xlink" xmlns="http://www.w3.org/2000/svg"><clipPath id="p.0"><path d="m0 0l375.66666 0l0 174.0l-375.66666 0l0 -174.0z" clip-rule="nonzero"/></clipPath><g clip-path="url(#p.0)"><path fill="#000000" fill-opacity="0.0" d="m0 0l375.66666 0l0 174.0l-375.66666 0z" fill-rule="evenodd"/><path fill="#ffffff" d="m191.86382 114.52485l0 0c4.1641235 3.296135 11.48111 0.99043274 16.342957 -5.149925c4.861847 -6.1403656 5.4274597 -13.790161 1.2633362 -17.086296l68.47945 54.20536c4.1641235 3.2961426 3.5985107 10.945938 -1.2633362 17.086304c-4.861847 6.1403656 -12.178833 8.44606 -16.342957 5.1499176z" fill-rule="evenodd"/><path fill="#ffffff" d="m191.86382 114.52485l0 0c-4.1641235 -3.296135 -3.5984955 -10.9459305 1.2633514 -17.086296c4.861847 -6.140358 12.178833 -8.44606 16.342941 -5.149925l0 0c4.1641235 3.296135 3.5985107 10.9459305 -1.2633362 17.086296c-4.861847 6.140358 -12.178833 8.44606 -16.342957 5.149925z" fill-rule="evenodd"/><path fill="#000000" fill-opacity="0.0" d="m209.47011 92.28863l0 0c4.1641235 3.296135 3.5985107 10.9459305 -1.2633362 17.086296c-4.861847 6.140358 -12.178833 8.44606 -16.342957 5.149925l0 0c-4.1641235 -3.296135 -3.5984955 -10.9459305 1.2633514 -17.086296c4.861847 -6.140358 12.178833 -8.44606 16.342941 -5.149925l68.47945 54.20536c4.1641235 3.2961426 3.5985107 10.945938 -1.2633362 17.086304c-4.861847 6.1403656 -12.178833 8.44606 -16.342957 5.1499176l-68.47945 -54.20536" fill-rule="evenodd"/><path stroke="#000000" stroke-width="3.0" stroke-linejoin="round" stroke-linecap="butt" d="m209.47011 92.28863l0 0c4.1641235 3.296135 3.5985107 10.9459305 -1.2633362 17.086296c-4.861847 6.140358 -12.178833 8.44606 -16.342957 5.149925l0 0c-4.1641235 -3.296135 -3.5984955 -10.9459305 1.2633514 -17.086296c4.861847 -6.140358 12.178833 -8.44606 16.342941 -5.149925l68.47945 54.20536c4.1641235 3.2961426 3.5985107 10.945938 -1.2633362 17.086304c-4.861847 6.1403656 -12.178833 8.44606 -16.342957 5.1499176l-68.47945 -54.20536" fill-rule="evenodd"/><path fill="#ffffff" d="m91.5105 68.96063l0 0c0 -38.085907 29.37294 -68.96063 65.60629 -68.96063l0 0c17.399887 0 34.087097 7.265474 46.39067 20.198101c12.303558 12.932625 19.215637 30.473034 19.215637 48.76253l0 0c0 38.0859 -29.37294 68.96063 -65.60631 68.96063l0 0c-36.233353 0 -65.60629 -30.874733 -65.60629 -68.96063zm6.3926773 0l0 0c0 34.55532 26.510841 62.567947 59.213615 62.567947c32.70279 0 59.213623 -28.012627 59.213623 -62.567947l0 0c0 -34.55533 -26.510834 -62.567955 -59.213623 -62.567955l0 0c-32.702774 0 -59.213615 28.012627 -59.213615 62.567955z" fill-rule="evenodd"/><path stroke="#000000" stroke-width="3.0" stroke-linejoin="round" stroke-linecap="butt" d="m91.5105 68.96063l0 0c0 -38.085907 29.37294 -68.96063 65.60629 -68.96063l0 0c17.399887 0 34.087097 7.265474 46.39067 20.198101c12.303558 12.932625 19.215637 30.473034 19.215637 48.76253l0 0c0 38.0859 -29.37294 68.96063 -65.60631 68.96063l0 0c-36.233353 0 -65.60629 -30.874733 -65.60629 -68.96063zm6.3926773 0l0 0c0 34.55532 26.510841 62.567947 59.213615 62.567947c32.70279 0 59.213623 -28.012627 59.213623 -62.567947l0 0c0 -34.55533 -26.510834 -62.567955 -59.213623 -62.567955l0 0c-32.702774 0 -59.213615 28.012627 -59.213615 62.567955z" fill-rule="evenodd"/><path fill="#000000" fill-opacity="0.0" d="m103.61024 71.07092l0 0c1.2925491 -28.02462 21.72474 -51.564674 49.571297 -57.111412l12.334213 59.977554z" fill-rule="evenodd"/><path fill="#000000" fill-opacity="0.0" d="m103.61024 71.07092l0 0c1.2925491 -28.02462 21.72474 -51.564674 49.571297 -57.111412" fill-rule="evenodd"/><path stroke="#000000" stroke-width="2.0" stroke-linejoin="round" stroke-linecap="butt" d="m103.61024 71.07092l0 0c1.2925491 -28.02462 21.72474 -51.564674 49.571297 -57.111412" fill-rule="evenodd"/><path fill="#000000" fill-opacity="0.0" d="m199.1284 61.935078l0 0c5.2178955 15.383762 0.8555603 32.839893 -10.892731 43.587902c-11.748276 10.748009 -28.338974 12.46093 -41.426926 4.2771454l18.470795 -33.831657z" fill-rule="evenodd"/><path fill="#000000" fill-opacity="0.0" d="m199.1284 61.935078l0 0c5.2178955 15.383762 0.8555603 32.839893 -10.892731 43.587902c-11.748276 10.748009 -28.338974 12.46093 -41.426926 4.2771454" fill-rule="evenodd"/><path stroke="#ffffff" stroke-width="24.0" stroke-linejoin="round" stroke-linecap="butt" d="m199.1284 61.935078l0 0c5.2178955 15.383762 0.8555603 32.839893 -10.892731 43.587902c-11.748276 10.748009 -28.338974 12.46093 -41.426926 4.2771454" fill-rule="evenodd"/></g></svg>