<svg version="1.1" viewBox="0.0 0.0 194.89763779527559 204.9448818897638" fill="none" stroke="none" stroke-linecap="square" stroke-miterlimit="10" xmlns:xlink="http://www.w3.org/1999/xlink" xmlns="http://www.w3.org/2000/svg"><clipPath id="p.0"><path d="m0 0l194.89764 0l0 204.94489l-194.89764 0l0 -204.94489z" clip-rule="nonzero"/></clipPath><g clip-path="url(#p.0)"><path fill="#000000" fill-opacity="0.0" d="m0 0l194.89764 0l0 204.94489l-194.89764 0z" fill-rule="evenodd"/><path fill="#ffffff" d="m103.84151 121.57209l0 0c4.164116 3.2961426 11.48111 0.99044037 16.342957 -5.149925c4.8618393 -6.1403656 5.4274597 -13.7901535 1.2633438 -17.086296l68.47944 54.205376c4.1641235 3.2961273 3.5985107 10.945923 -1.2633362 17.086288c-4.861847 6.1403656 -12.178833 8.44606 -16.342957 5.149933z" fill-rule="evenodd"/><path fill="#ffffff" d="m103.84151 121.57209l0 0c-4.164116 -3.296135 -3.598503 -10.9459305 1.2633438 -17.086288c4.861847 -6.1403656 12.178833 -8.446068 16.342957 -5.149933l0 0c4.164116 3.2961426 3.5984955 10.9459305 -1.2633438 17.086296c-4.861847 6.1403656 -12.178841 8.446068 -16.342957 5.149925z" fill-rule="evenodd"/><path fill="#000000" fill-opacity="0.0" d="m121.44781 99.33587l0 0c4.164116 3.2961426 3.5984955 10.9459305 -1.2633438 17.086296c-4.861847 6.1403656 -12.178841 8.446068 -16.342957 5.149925l0 0c-4.164116 -3.296135 -3.598503 -10.9459305 1.2633438 -17.086288c4.861847 -6.1403656 12.178833 -8.446068 16.342957 -5.149933l68.47944 54.205376c4.1641235 3.2961273 3.5985107 10.945923 -1.2633362 17.086288c-4.861847 6.1403656 -12.178833 8.44606 -16.342957 5.149933l-68.47945 -54.205376" fill-rule="evenodd"/><path stroke="#000000" stroke-width="3.0" stroke-linejoin="round" stroke-linecap="butt" d="m121.44781 99.33587l0 0c4.164116 3.2961426 3.5984955 10.9459305 -1.2633438 17.086296c-4.861847 6.1403656 -12.178841 8.446068 -16.342957 5.149925l0 0c-4.164116 -3.296135 -3.598503 -10.9459305 1.2633438 -17.086288c4.861847 -6.1403656 12.178833 -8.446068 16.342957 -5.149933l68.47944 54.205376c4.1641235 3.2961273 3.5985107 10.945923 -1.2633362 17.086288c-4.861847 6.1403656 -12.178833 8.44606 -16.342957 5.149933l-68.47945 -54.205376" fill-rule="evenodd"/><path fill="#ffffff" d="m3.488189 76.00787l0 0c0 -38.085903 29.37294 -68.96063 65.6063 -68.96063l0 0c17.399872 0 34.08709 7.2654743 46.390656 20.198101c12.303566 12.932627 19.215645 30.473032 19.215645 48.762527l0 0c0 38.085907 -29.37294 68.96063 -65.6063 68.96063l0 0c-36.23336 0 -65.6063 -30.874725 -65.6063 -68.96063zm6.3926783 0l0 0c0 34.55533 26.510841 62.567947 59.213623 62.567947c32.70278 0 59.213615 -28.012619 59.213615 -62.567947l0 0c0 -34.555325 -26.510834 -62.56795 -59.213615 -62.56795l0 0c-32.70278 0 -59.213623 28.012627 -59.213623 62.56795z" fill-rule="evenodd"/><path stroke="#000000" stroke-width="3.0" stroke-linejoin="round" stroke-linecap="butt" d="m3.488189 76.00787l0 0c0 -38.085903 29.37294 -68.96063 65.6063 -68.96063l0 0c17.399872 0 34.08709 7.2654743 46.390656 20.198101c12.303566 12.932627 19.215645 30.473032 19.215645 48.762527l0 0c0 38.085907 -29.37294 68.96063 -65.6063 68.96063l0 0c-36.23336 0 -65.6063 -30.874725 -65.6063 -68.96063zm6.3926783 0l0 0c0 34.55533 26.510841 62.567947 59.213623 62.567947c32.70278 0 59.213615 -28.012619 59.213615 -62.567947l0 0c0 -34.555325 -26.510834 -62.56795 -59.213615 -62.56795l0 0c-32.70278 0 -59.213623 28.012627 -59.213623 62.56795z" fill-rule="evenodd"/><path fill="#000000" fill-opacity="0.0" d="m15.587925 78.11817l0 0c1.2925549 -28.024624 21.72474 -51.564674 49.5713 -57.11142l12.334213 59.977562z" fill-rule="evenodd"/><path fill="#000000" fill-opacity="0.0" d="m15.587925 78.11817l0 0c1.2925549 -28.024624 21.72474 -51.564674 49.5713 -57.11142" fill-rule="evenodd"/><path stroke="#000000" stroke-width="2.0" stroke-linejoin="round" stroke-linecap="butt" d="m15.587925 78.11817l0 0c1.2925549 -28.024624 21.72474 -51.564674 49.5713 -57.11142" fill-rule="evenodd"/><path fill="#000000" fill-opacity="0.0" d="m111.106094 68.98232l0 0c5.217888 15.383759 0.8555603 32.83989 -10.892731 43.5879c-11.748283 10.748016 -28.338982 12.46093 -41.426926 4.277153l18.470787 -33.831657z" fill-rule="evenodd"/><path fill="#000000" fill-opacity="0.0" d="m111.106094 68.98232l0 0c5.217888 15.383759 0.8555603 32.83989 -10.892731 43.5879c-11.748283 10.748016 -28.338982 12.46093 -41.426926 4.277153" fill-rule="evenodd"/><path stroke="#ffffff" stroke-width="24.0" stroke-linejoin="round" stroke-linecap="butt" d="m111.106094 68.98232l0 0c5.217888 15.383759 0.8555603 32.83989 -10.892731 43.5879c-11.748283 10.748016 -28.338982 12.46093 -41.426926 4.277153" fill-rule="evenodd"/></g></svg>