<svg version="1.1" viewBox="0.0 0.0 960.0 720.0" fill="none" stroke="none" stroke-linecap="square" stroke-miterlimit="10" xmlns:xlink="http://www.w3.org/1999/xlink" xmlns="http://www.w3.org/2000/svg"><clipPath id="p.0"><path d="m0 0l960.0 0l0 720.0l-960.0 0l0 -720.0z" clip-rule="nonzero"/></clipPath><g clip-path="url(#p.0)"><path fill="#000000" fill-opacity="0.0" d="m0 0l960.0 0l0 720.0l-960.0 0z" fill-rule="evenodd"/><path fill="#ffffff" d="m100.35332 114.52485l0 0c4.164116 3.296135 11.48111 0.99043274 16.342957 -5.149925c4.861847 -6.1403656 5.4274597 -13.790161 1.2633438 -17.086296l68.47944 54.20536c4.1641235 3.2961426 3.5985107 10.945938 -1.2633362 17.086304c-4.861847 6.1403656 -12.178833 8.44606 -16.342957 5.1499176z" fill-rule="evenodd"/><path fill="#ffffff" d="m100.35332 114.52485l0 0c-4.164116 -3.296135 -3.598503 -10.9459305 1.2633438 -17.086296c4.861847 -6.140358 12.178833 -8.44606 16.342957 -5.149925l0 0c4.164116 3.296135 3.598503 10.9459305 -1.2633438 17.086296c-4.861847 6.140358 -12.178841 8.44606 -16.342957 5.149925z" fill-rule="evenodd"/><path fill="#000000" fill-opacity="0.0" d="m117.95962 92.28863l0 0c4.164116 3.296135 3.598503 10.9459305 -1.2633438 17.086296c-4.861847 6.140358 -12.178841 8.44606 -16.342957 5.149925l0 0c-4.164116 -3.296135 -3.598503 -10.9459305 1.2633438 -17.086296c4.861847 -6.140358 12.178833 -8.44606 16.342957 -5.149925l68.47944 54.20536c4.1641235 3.2961426 3.5985107 10.945938 -1.2633362 17.086304c-4.861847 6.1403656 -12.178833 8.44606 -16.342957 5.1499176l-68.47945 -54.20536" fill-rule="evenodd"/><path stroke="#000000" stroke-width="3.0" stroke-linejoin="round" stroke-linecap="butt" d="m117.95962 92.28863l0 0c4.164116 3.296135 3.598503 10.9459305 -1.2633438 17.086296c-4.861847 6.140358 -12.178841 8.44606 -16.342957 5.149925l0 0c-4.164116 -3.296135 -3.598503 -10.9459305 1.2633438 -17.086296c4.861847 -6.140358 12.178833 -8.44606 16.342957 -5.149925l68.47944 54.20536c4.1641235 3.2961426 3.5985107 10.945938 -1.2633362 17.086304c-4.861847 6.1403656 -12.178833 8.44606 -16.342957 5.1499176l-68.47945 -54.20536" fill-rule="evenodd"/><path fill="#ffffff" d="m0 68.96063l0 0c0 -38.085907 29.37294 -68.96063 65.6063 -68.96063l0 0c17.399872 0 34.08709 7.265474 46.390656 20.198101c12.303574 12.932625 19.215645 30.473034 19.215645 48.76253l0 0c0 38.0859 -29.37294 68.96063 -65.6063 68.96063l0 0c-36.23336 0 -65.6063 -30.874733 -65.6063 -68.96063zm6.392678 0l0 0c0 34.55532 26.510841 62.567947 59.213623 62.567947c32.70278 0 59.213623 -28.012627 59.213623 -62.567947l0 0c0 -34.55533 -26.510841 -62.567955 -59.213623 -62.567955l0 0c-32.70278 0 -59.213623 28.012627 -59.213623 62.567955z" fill-rule="evenodd"/><path stroke="#000000" stroke-width="3.0" stroke-linejoin="round" stroke-linecap="butt" d="m0 68.96063l0 0c0 -38.085907 29.37294 -68.96063 65.6063 -68.96063l0 0c17.399872 0 34.08709 7.265474 46.390656 20.198101c12.303574 12.932625 19.215645 30.473034 19.215645 48.76253l0 0c0 38.0859 -29.37294 68.96063 -65.6063 68.96063l0 0c-36.23336 0 -65.6063 -30.874733 -65.6063 -68.96063zm6.392678 0l0 0c0 34.55532 26.510841 62.567947 59.213623 62.567947c32.70278 0 59.213623 -28.012627 59.213623 -62.567947l0 0c0 -34.55533 -26.510841 -62.567955 -59.213623 -62.567955l0 0c-32.70278 0 -59.213623 28.012627 -59.213623 62.567955z" fill-rule="evenodd"/><path fill="#000000" fill-opacity="0.0" d="m12.099735 71.07092l0 0c1.2925558 -28.02462 21.724743 -51.564674 49.5713 -57.111412l12.334213 59.977554z" fill-rule="evenodd"/><path fill="#000000" fill-opacity="0.0" d="m12.099735 71.07092l0 0c1.2925558 -28.02462 21.724743 -51.564674 49.5713 -57.111412" fill-rule="evenodd"/><path stroke="#000000" stroke-width="2.0" stroke-linejoin="round" stroke-linecap="butt" d="m12.099735 71.07092l0 0c1.2925558 -28.02462 21.724743 -51.564674 49.5713 -57.111412" fill-rule="evenodd"/><path fill="#000000" fill-opacity="0.0" d="m107.617905 61.935078l0 0c5.217888 15.383762 0.8555603 32.839893 -10.892723 43.587902c-11.748291 10.748009 -28.33899 12.46093 -41.426933 4.2771454l18.470787 -33.831657z" fill-rule="evenodd"/><path fill="#000000" fill-opacity="0.0" d="m107.617905 61.935078l0 0c5.217888 15.383762 0.8555603 32.839893 -10.892723 43.587902c-11.748291 10.748009 -28.33899 12.46093 -41.426933 4.2771454" fill-rule="evenodd"/><path stroke="#ffffff" stroke-width="24.0" stroke-linejoin="round" stroke-linecap="butt" d="m107.617905 61.935078l0 0c5.217888 15.383762 0.8555603 32.839893 -10.892723 43.587902c-11.748291 10.748009 -28.33899 12.46093 -41.426933 4.2771454" fill-rule="evenodd"/></g></svg>